<svg width="99" height="40" viewBox="0 0 99 40" fill="none" xmlns="http://www.w3.org/2000/svg">
<g clip-path="url(#clip0_2683_479)">
<path d="M2.25894 39.8261L2.11788 39.515H1.08793L0.946863 39.8261H0.114014L1.40097 37.1459H1.8029L3.09179 39.8261H2.25894ZM1.60774 38.3768L1.37778 38.8811H1.83189L1.60774 38.3768Z" fill="#1995BA"/>
<path d="M6.89467 39.8222L6.46375 39.2676H6.05023V39.8222H5.27148V37.142H6.57197C6.92752 37.142 7.20579 37.2367 7.40482 37.428C7.60192 37.6173 7.70047 37.8724 7.70047 38.1932C7.70047 38.3864 7.66182 38.5603 7.58453 38.7149C7.50723 38.8695 7.39709 38.9932 7.25216 39.0879L7.86279 39.8241L6.89467 39.8222ZM6.05409 38.6086H6.54105C6.65699 38.6086 6.75941 38.57 6.84443 38.4927C6.92946 38.4154 6.97197 38.313 6.97197 38.1893C6.97197 38.0695 6.92946 37.9748 6.84443 37.9033C6.75941 37.8318 6.65699 37.797 6.53719 37.797H6.05023L6.05409 38.6086Z" fill="#1995BA"/>
<path d="M11.3951 39.1691H11.9246V39.8241H10.0869V39.1691H10.6164V37.8048H10.0869V37.1459H11.9246V37.8048H11.3951V39.1691Z" fill="#1995BA"/>
<path d="M15.3062 37.0938C15.5961 37.0938 15.8357 37.1614 16.0289 37.2947C16.2222 37.4281 16.34 37.6194 16.3826 37.8686L15.6309 38.0194C15.5845 37.8184 15.4724 37.716 15.2927 37.716C15.2251 37.716 15.1729 37.7295 15.1343 37.7624C15.0956 37.7933 15.0743 37.8319 15.0743 37.8822C15.0743 37.9672 15.113 38.0194 15.1942 38.0483L15.6676 38.2068C15.9188 38.2918 16.1004 38.3942 16.2183 38.514C16.3342 38.6338 16.3942 38.7962 16.3942 39.001C16.3942 39.1556 16.3632 39.2928 16.2956 39.4107C16.228 39.5266 16.141 39.6194 16.0309 39.6851C15.9207 39.7527 15.8048 39.801 15.6811 39.8339C15.5574 39.8648 15.4299 39.8802 15.3004 39.8802C14.9971 39.8802 14.74 39.8029 14.5256 39.6483C14.3111 39.4938 14.1874 39.2928 14.1545 39.0454L14.941 38.8831C14.9913 39.1053 15.113 39.2174 15.312 39.2174C15.3855 39.2174 15.4454 39.2039 15.4917 39.171C15.5381 39.1401 15.5632 39.1015 15.5632 39.0512C15.5632 38.9662 15.513 38.9063 15.4144 38.8793L14.9314 38.7343C14.6956 38.6628 14.5217 38.5681 14.4096 38.4483C14.2975 38.3285 14.2396 38.1701 14.2396 37.973C14.2396 37.6947 14.3381 37.4783 14.5352 37.3276C14.7323 37.1768 14.9874 37.0976 15.2966 37.0976L15.3062 37.0938Z" fill="#1995BA"/>
<path d="M20.659 39.8261H18.5933V37.1459H20.6358V37.8009H19.3739V38.1468H20.6145V38.8038H19.3739V39.171H20.6609V39.8261H20.659Z" fill="#1995BA"/>
<path d="M27.8435 38.5913C27.9246 38.715 27.9672 38.8599 27.9672 39.0261C27.9672 39.2695 27.8821 39.4628 27.714 39.6077C27.544 39.7526 27.3159 39.8261 27.03 39.8261H25.7952V37.1459H26.97C27.2058 37.1459 27.3971 37.2058 27.5382 37.3294C27.6792 37.4531 27.7507 37.6154 27.7507 37.8203C27.7507 38.0425 27.6696 38.2087 27.5072 38.3169C27.6502 38.3768 27.7623 38.4676 27.8435 38.5913ZM26.172 38.2048H26.9874C27.1072 38.2048 27.2019 38.1739 27.2734 38.1101C27.343 38.0464 27.3797 37.9594 27.3797 37.8493C27.3797 37.741 27.3449 37.6521 27.2696 37.5884C27.1961 37.5246 27.0976 37.4937 26.97 37.4937H26.1739V38.2048H26.172ZM27.0261 39.4724C27.2019 39.4724 27.343 39.4299 27.4454 39.3449C27.5478 39.2599 27.6 39.1439 27.6 38.999C27.6 38.8502 27.5478 38.7304 27.4415 38.6435C27.3353 38.5546 27.1903 38.5101 27.0106 38.5101H26.172V39.4763L27.0261 39.4724Z" fill="#FF813A"/>
<path d="M32.3903 39.8261H30.427V37.1459H32.3806V37.4918H30.8038V38.3092H32.342V38.6512H30.8038V39.484H32.3903V39.8261Z" fill="#FF813A"/>
<path d="M36.1354 39.8261H35.7547V38.9584L34.6475 37.1459H35.0668L35.9441 38.5662L36.8214 37.1459H37.2542L36.1335 38.9584V39.8261H36.1354Z" fill="#FF813A"/>
<path d="M41.6967 37.5015C41.9615 37.772 42.0948 38.1044 42.0948 38.4967C42.0948 38.8812 41.9615 39.2097 41.6967 39.4764C41.432 39.745 41.1073 39.8783 40.7228 39.8783C40.3383 39.8783 40.0136 39.745 39.7489 39.4764C39.4842 39.2078 39.3508 38.8812 39.3508 38.4967C39.3508 38.1044 39.4842 37.774 39.7489 37.5015C40.0136 37.229 40.3383 37.0957 40.7228 37.0957C41.1073 37.0957 41.432 37.231 41.6967 37.5015ZM41.4281 39.2232C41.6194 39.0261 41.7141 38.7827 41.7141 38.4889C41.7141 38.1952 41.6194 37.9498 41.4281 37.7488C41.2368 37.5479 41.0011 37.4493 40.7228 37.4493C40.4445 37.4493 40.2088 37.5479 40.0175 37.7488C39.8262 37.9498 39.7315 38.1972 39.7315 38.4889C39.7315 38.7807 39.8262 39.0242 40.0175 39.2232C40.2088 39.4203 40.4445 39.5189 40.7228 39.5189C41.003 39.5189 41.2388 39.4203 41.4281 39.2232Z" fill="#FF813A"/>
<path d="M47.0049 39.8261H46.6281V39.0009L44.9354 37.7236L44.9315 39.8261H44.5547V37.1459H44.8233L46.6281 38.5449V37.1459H47.0049V39.8261Z" fill="#FF813A"/>
<path d="M50.6126 37.1381C51.0455 37.1343 51.3952 37.2618 51.66 37.5092C51.9247 37.7565 52.058 38.0811 52.058 38.4831C52.058 38.885 51.9266 39.2096 51.6638 39.457C51.3991 39.7043 51.0493 39.828 50.6165 39.828H49.573V37.1478L50.6126 37.1381ZM50.63 39.4763C50.943 39.4763 51.1981 39.3855 51.3875 39.2019C51.5788 39.0183 51.6735 38.7787 51.6735 38.4792C51.6735 38.1797 51.5788 37.9401 51.3875 37.7565C51.1962 37.5729 50.9469 37.4821 50.6319 37.4821H49.944V39.4782H50.63V39.4763Z" fill="#FF813A"/>
<path d="M58.4424 37.1381C58.8753 37.1343 59.2251 37.2618 59.4898 37.5092C59.7545 37.7565 59.8879 38.0811 59.8879 38.4831C59.8879 38.885 59.7565 39.2096 59.4937 39.457C59.2289 39.7043 58.8792 39.828 58.4463 39.828H57.4028V37.1478L58.4424 37.1381ZM58.4598 39.4763C58.7729 39.4763 59.028 39.3855 59.2173 39.2019C59.4086 39.0183 59.5033 38.7787 59.5033 38.4792C59.5033 38.1797 59.4086 37.9401 59.2173 37.7565C59.026 37.5729 58.7767 37.4821 58.4618 37.4821H57.7738V39.4782H58.4598V39.4763Z" fill="#FF813A"/>
<path d="M63.1903 39.484H63.8241V39.8261H62.1777V39.484H62.8116V37.4879H62.1777V37.1459H63.8241V37.4879H63.1903V39.484Z" fill="#FF813A"/>
<path d="M67.142 37.0957C67.4067 37.0957 67.6251 37.1633 67.7971 37.2967C67.969 37.43 68.0792 37.6136 68.1256 37.8474L67.741 37.9286C67.712 37.7778 67.6463 37.658 67.5362 37.5691C67.426 37.4802 67.2927 37.4358 67.1343 37.4358C66.9893 37.4358 66.8695 37.4706 66.7748 37.5459C66.6801 37.6194 66.6299 37.7218 66.6299 37.8532C66.6299 37.9479 66.6589 38.0232 66.7149 38.0793C66.771 38.1353 66.8599 38.1817 66.9758 38.2165L67.5826 38.3923C67.971 38.5044 68.1642 38.744 68.1642 39.1015C68.1642 39.3411 68.0753 39.5324 67.8995 39.6735C67.7236 39.8145 67.4898 39.8841 67.2058 39.8841C66.9236 39.8841 66.6879 39.8145 66.4927 39.6754C66.2995 39.5382 66.1855 39.343 66.1545 39.0938L66.5642 39.0087C66.5932 39.1807 66.6666 39.316 66.7864 39.4068C66.9062 39.4976 67.057 39.544 67.2405 39.544C67.4106 39.544 67.5439 39.5054 67.6386 39.4281C67.7333 39.3508 67.7835 39.2445 67.7835 39.1112C67.7835 39.0165 67.7545 38.9392 67.6985 38.8793C67.6425 38.8194 67.5497 38.773 67.4241 38.7382L66.8772 38.5836C66.7884 38.5585 66.7111 38.5315 66.6454 38.4986C66.5777 38.4677 66.512 38.4252 66.4444 38.3711C66.3768 38.3189 66.3246 38.2474 66.2859 38.1624C66.2473 38.0773 66.2299 37.9827 66.2299 37.8725C66.2299 37.6368 66.3149 37.4493 66.4811 37.3083C66.6473 37.1672 66.8657 37.0976 67.1362 37.0976H67.142V37.0957Z" fill="#FF813A"/>
<path d="M72.7613 39.8261L72.4966 39.2444H71.0685L70.8038 39.8261H70.3806L71.6328 37.1459H71.9323L73.1845 39.8261H72.7613ZM71.7835 37.6637L71.2231 38.8985H72.34L71.7835 37.6637Z" fill="#FF813A"/>
<path d="M77.54 38.5913C77.6212 38.715 77.6637 38.8599 77.6637 39.0261C77.6637 39.2695 77.5787 39.4628 77.4105 39.6077C77.2405 39.7526 77.0125 39.8261 76.7265 39.8261H75.4917V37.1459H76.6666C76.9023 37.1459 77.0936 37.2058 77.2347 37.3294C77.3758 37.4531 77.4473 37.6154 77.4473 37.8203C77.4473 38.0425 77.3661 38.2087 77.2038 38.3169C77.3468 38.3768 77.4589 38.4676 77.54 38.5913ZM75.8685 38.2048H76.684C76.8038 38.2048 76.8985 38.1739 76.97 38.1101C77.0395 38.0464 77.0762 37.9594 77.0762 37.8493C77.0762 37.741 77.0415 37.6521 76.9661 37.5884C76.8927 37.5246 76.7941 37.4937 76.6666 37.4937H75.8704V38.2048H75.8685ZM76.7226 39.4724C76.8985 39.4724 77.0395 39.4299 77.142 39.3449C77.2444 39.2599 77.2965 39.1439 77.2965 38.999C77.2965 38.8502 77.2444 38.7304 77.1381 38.6435C77.0318 38.5546 76.8869 38.5101 76.7072 38.5101H75.8685V39.4763L76.7226 39.4724Z" fill="#FF813A"/>
<path d="M81.0067 39.484H81.6405V39.8261H79.9941V39.484H80.628V37.4879H79.9941V37.1459H81.6405V37.4879H81.0067V39.484Z" fill="#FF813A"/>
<path d="M85.8801 39.8261H84.0811V37.1459H84.4579V39.484H85.8782V39.8261H85.8801Z" fill="#FF813A"/>
<path d="M89.1883 39.484H89.8222V39.8261H88.1758V39.484H88.8096V37.4879H88.1758V37.1459H89.8222V37.4879H89.1883V39.484Z" fill="#FF813A"/>
<path d="M93.3082 37.4879V39.8261H92.9275V37.4879H92.0676V37.1459H94.172V37.4879H93.3082Z" fill="#FF813A"/>
<path d="M97.7953 39.8261H97.4146V38.9584L96.3074 37.1459H96.7267L97.604 38.5662L98.4813 37.1459H98.9141L97.7934 38.9584V39.8261H97.7953Z" fill="#FF813A"/>
<path d="M14.7208 6.38062L12.9276 9.69269V9.71201L0.115967 34.1082H3.5749L14.7034 12.8966L25.9053 34.1082H29.2715L16.3691 9.50912L14.7208 6.38062Z" fill="#092E40"/>
<path d="M49.5151 16.9217C49.5151 12.8212 47.7952 9.93618 44.3537 8.26468C42.6204 7.41057 40.8948 6.98352 39.173 6.98352H32.2919H30.3711V34.1082H33.2078V9.80284H39.175C40.5044 9.80284 41.7991 10.114 43.0551 10.7362C45.4339 11.9207 46.6242 13.9826 46.6242 16.9217C46.6242 19.8628 45.4339 21.9246 43.0551 23.1072C41.7856 23.7294 40.4928 24.0405 39.175 24.0405H34.288L36.9972 26.7304L44.6107 34.1062H48.7653L41.0957 26.6743C42.6455 26.4908 44.201 25.8512 45.7624 24.7536C48.2648 22.999 49.5151 20.3884 49.5151 16.9217Z" fill="#092E40"/>
<path d="M50.6125 1.82033V0.498593C50.6125 0.172023 50.9662 -0.030877 51.2483 0.131442L52.3942 0.792314L53.5401 1.45318C53.8222 1.6155 53.8222 2.02323 53.5401 2.18555L52.3942 2.84642L51.2483 3.50729C50.9662 3.66961 50.6125 3.46671 50.6125 3.14014V1.82033Z" fill="#FF813A"/>
<path d="M68.6415 18.7517C67.4821 17.0918 66.027 16.0348 64.1352 15.3275C62.9874 14.8773 61.9265 14.7903 60.514 14.5237C59.7468 14.3787 59.0608 14.2435 58.5004 13.6812C57.9401 13.1324 57.6579 12.4734 57.6579 11.7044C57.6579 10.9121 57.9381 10.2396 58.5004 9.69082C59.0608 9.13044 59.7333 8.84831 60.514 8.84831C61.3062 8.84831 61.9845 9.1285 62.5449 9.69082C62.9835 10.2396 63.2405 10.7652 63.314 11.2657L66.7188 11.2831C65.4744 7.80483 63.4067 6.05991 60.514 6.04831C58.9526 6.04831 57.6212 6.59711 56.5236 7.69662C55.4009 8.80773 54.8405 10.143 54.8405 11.7044C54.8405 13.2541 55.4009 14.5836 56.5236 15.6947C56.5719 15.743 56.6705 15.8358 56.8174 15.9691C57.8782 16.8715 59.1246 17.1304 60.514 17.3237C62.5951 17.6116 64.1565 18.0135 65.5478 19.3913C66.9275 20.7459 67.6154 22.3923 67.6154 24.3324C67.6154 26.2473 66.9256 27.8841 65.5478 29.2367C64.1565 30.6164 62.4792 31.3043 60.514 31.3043C58.5855 31.3043 56.9333 30.6338 55.5536 29.2908C54.1739 27.9614 53.4608 26.2048 53.4125 24.0193V3.5343L52.3362 4.15459L51.1439 4.84251C50.9584 4.9488 50.7439 4.90435 50.6106 4.77102V24.0232C50.6589 27.001 51.6483 29.4222 53.5748 31.2889C55.4898 33.1691 57.8029 34.1082 60.512 34.1082C63.2444 34.1082 65.5826 33.1498 67.5227 31.2348C69.4628 29.343 70.4328 27.0435 70.4328 24.3343C70.4347 22.286 69.8376 20.4251 68.6415 18.7517Z" fill="#092E40"/>
<path d="M56.6801 0.0599365C57.198 0.0599365 57.6444 0.229987 58.0115 0.572016C58.3806 0.914045 58.5661 1.3295 58.5661 1.81839C58.5661 2.30921 58.3845 2.72274 58.0154 3.0609C57.6463 3.39907 57.2057 3.56912 56.6878 3.56912C56.17 3.56912 55.7294 3.39907 55.3603 3.0609C54.9912 2.72274 54.8096 2.30728 54.8096 1.81839C54.8096 1.32757 54.9951 0.914045 55.3642 0.572016C55.7332 0.229987 56.1777 0.0599365 56.6956 0.0599365H56.6801ZM57.2946 2.45221C57.4627 2.28216 57.5497 2.07346 57.5497 1.82419C57.5497 1.57491 57.4627 1.36622 57.2946 1.19617C57.1265 1.02612 56.9216 0.94303 56.6801 0.94303C56.4386 0.94303 56.2337 1.02805 56.0656 1.19617C55.8975 1.36622 55.8105 1.57491 55.8105 1.82419C55.8105 2.07346 55.8975 2.28216 56.0656 2.45221C56.2337 2.62226 56.4386 2.70535 56.6801 2.70535C56.9216 2.70535 57.1265 2.62226 57.2946 2.45221Z" fill="#1995BA"/>
<path d="M61.1865 3.50343L60.6319 2.80391H60.1005V3.50343H59.0957V0.11792H60.773C61.2329 0.11792 61.5923 0.237726 61.8455 0.479272C62.1005 0.720817 62.2281 1.03966 62.2281 1.44546C62.2281 1.69087 62.1778 1.90922 62.0773 2.10439C61.9769 2.29956 61.8358 2.45608 61.6503 2.57589L62.4368 3.50729L61.1865 3.50343ZM60.1044 1.97106H60.7324C60.8831 1.97106 61.0145 1.92275 61.1228 1.8242C61.231 1.72565 61.287 1.59618 61.287 1.44159C61.287 1.29087 61.2329 1.16913 61.1228 1.08024C61.0145 0.991349 60.8812 0.946904 60.7266 0.946904H60.0986L60.1044 1.97106Z" fill="#1995BA"/>
<path d="M66.4116 3.50724H65.7256L65.6657 3.1768C65.4164 3.44347 65.057 3.5768 64.5874 3.5768C64.0638 3.5768 63.6232 3.40676 63.2638 3.06859C62.9043 2.73043 62.7266 2.3111 62.7266 1.81642C62.7266 1.32173 62.9082 0.902408 63.2676 0.564244C63.627 0.22608 64.0676 0.0560303 64.5913 0.0560303C65.0048 0.0560303 65.3642 0.148786 65.6696 0.336226C65.9749 0.523665 66.1836 0.776805 66.2976 1.09371L65.2425 1.3256C65.1246 1.06279 64.9063 0.929461 64.5932 0.929461C64.344 0.929461 64.1391 1.01448 63.9787 1.1826C63.8203 1.35265 63.743 1.56135 63.743 1.81449C63.743 2.06763 63.8241 2.27825 63.9845 2.44637C64.143 2.61642 64.3478 2.69951 64.599 2.69951C64.858 2.69951 65.0628 2.62415 65.2135 2.46763H64.3536V1.68309H66.4174L66.4116 3.50724Z" fill="#1995BA"/>
<path d="M69.5904 3.50721L69.4088 3.11494H68.0813L67.8996 3.50721H66.8271L68.4871 0.121704H69.0049L70.6648 3.50721H69.5904ZM68.7499 1.67726L68.4542 2.31494H69.0397L68.7499 1.67726Z" fill="#1995BA"/>
<path d="M74.5199 3.50719H73.515V2.54487L72.0773 1.67531V3.50526H71.0725V0.119751H71.6271L73.5131 1.36226V0.119751H74.5179V3.50719H74.5199Z" fill="#1995BA"/>
<path d="M76.798 2.68018H77.4802V3.50917H75.1111V2.68018H75.7932V0.956507H75.1111V0.123657H77.4802V0.956507H76.798V2.68018Z" fill="#1995BA"/>
<path d="M80.9624 3.50721H77.9807V3.22702L79.4532 0.950688H78.0252V0.121704H80.9083V0.401897L79.5131 2.68209H80.9643V3.50721H80.9624Z" fill="#1995BA"/>
<path d="M84.0367 3.50721L83.8551 3.11494H82.5275L82.3459 3.50721H81.2734L82.9333 0.121704H83.4512L85.1111 3.50721H84.0367ZM83.1961 1.67726L82.9005 2.31494H83.486L83.1961 1.67726Z" fill="#1995BA"/>
<path d="M86.9294 0.950688V3.50721H85.9246V0.950688H84.9294V0.121704H87.9266V0.950688H86.9294Z" fill="#1995BA"/>
<path d="M90.0676 2.68018H90.7497V3.50917H88.3806V2.68018H89.0627V0.956507H88.3806V0.123657H90.7497V0.956507H90.0676V2.68018Z" fill="#1995BA"/>
<path d="M93.0453 0.0599365C93.5632 0.0599365 94.0096 0.229987 94.3767 0.572016C94.7458 0.914045 94.9313 1.3295 94.9313 1.81839C94.9313 2.30921 94.7497 2.72274 94.3806 3.0609C94.0115 3.39907 93.5709 3.56912 93.0531 3.56912C92.5352 3.56912 92.0946 3.39907 91.7255 3.0609C91.3564 2.72274 91.1748 2.30728 91.1748 1.81839C91.1748 1.32757 91.3603 0.914045 91.7294 0.572016C92.0985 0.229987 92.5429 0.0599365 93.0608 0.0599365H93.0453ZM93.6598 2.45221C93.8279 2.28216 93.9149 2.07346 93.9149 1.82419C93.9149 1.57491 93.8279 1.36622 93.6598 1.19617C93.4917 1.02612 93.2869 0.94303 93.0453 0.94303C92.8038 0.94303 92.599 1.02805 92.4308 1.19617C92.2627 1.36622 92.1758 1.57491 92.1758 1.82419C92.1758 2.07346 92.2627 2.28216 92.4308 2.45221C92.599 2.62226 92.8038 2.70535 93.0453 2.70535C93.2869 2.70535 93.4917 2.62226 93.6598 2.45221Z" fill="#1995BA"/>
<path d="M98.9159 3.50719H97.911V2.54487L96.4733 1.67531V3.50526H95.4685V0.119751H96.0231L97.9091 1.36226V0.119751H98.9139V3.50719H98.9159Z" fill="#1995BA"/>
<path d="M95.7798 23.1324C94.4291 27.716 90.1837 31.0725 85.1692 31.0725C82.0736 31.0725 79.2716 29.7933 77.262 27.7353C78.1682 27.0145 80.6185 25.0686 80.6552 25.0474C80.8233 24.9488 80.8987 24.9411 80.9856 24.9797C83.0591 25.8995 85.4649 25.7662 87.4204 24.6184L87.4359 24.6087C87.6716 24.4696 87.6426 24.2358 87.6272 24.1681C87.5982 24.0271 87.4919 23.8706 87.2852 23.8358L86.5605 23.7527C86.404 23.7353 86.2765 23.6 86.2861 23.4435C86.2958 23.2754 86.4446 23.1536 86.6108 23.171L87.3257 23.2522C87.3373 23.2541 87.3489 23.2561 87.3605 23.2561L88.5779 23.3971C88.8349 23.4261 89.0842 23.2908 89.1943 23.0396C89.2484 22.916 89.2581 22.7749 89.2195 22.6454C89.1499 22.4078 88.9586 22.2454 88.719 22.2145L87.2542 22.0464C87.1151 22.0309 86.9972 21.9208 86.9856 21.7797C86.9721 21.5904 87.1306 21.4454 87.3103 21.4667L88.7808 21.6367C88.7827 21.6367 88.7866 21.6367 88.7885 21.6367L89.6079 21.7314C89.8649 21.7604 90.1238 21.6348 90.2359 21.4029C90.3248 21.2193 90.3151 21.0107 90.2127 20.8387C90.118 20.6802 89.9596 20.5759 89.776 20.5527L87.9267 20.3382C87.7876 20.3227 87.6697 20.2126 87.6581 20.0715C87.6446 19.8821 87.803 19.7372 87.9827 19.7565L89.8378 19.971C89.8417 19.971 89.8436 19.971 89.8475 19.973L90.1161 20.0039C90.431 20.0406 90.7518 19.8184 90.8001 19.5034C90.8233 19.345 90.7847 19.1884 90.69 19.0609C90.5876 18.9218 90.4233 18.8406 90.2533 18.8213L85.2426 18.2435C84.8021 18.1933 84.3827 18.4387 84.2108 18.8464L83.6639 20.1527C83.3161 20.9836 82.4484 21.4899 81.5537 21.3875C81.2987 21.3585 81.0803 21.2097 80.9567 20.9836C80.8388 20.7672 80.8388 20.5063 80.9335 20.2802L81.8765 18.0309C81.9499 17.8551 81.718 17.7121 81.5943 17.857L79.3934 20.4464C79.0571 20.8425 78.6204 21.1382 78.1277 21.3024L77.0088 21.6773L71.5576 23.6773C73.1731 29.6831 78.6552 34.1063 85.1711 34.1063C91.8842 34.1063 97.4977 29.4126 98.9199 23.1305H95.7798V23.1324Z" fill="#092E40"/>
<path d="M74.2164 21.5421C74.1449 21.0416 74.1043 20.5295 74.1043 20.0097C74.1043 13.9092 79.0666 8.9469 85.1671 8.9469C88.0096 8.9469 90.6029 10.0252 92.5623 11.7933L88.6975 15.1285C88.2995 15.4706 87.8164 15.6986 87.2985 15.7836L84.1043 16.3092C83.5188 16.4058 83.0241 16.7962 82.7942 17.343L81.455 20.5372C81.4299 20.5952 81.4357 20.6609 81.4666 20.715C81.4995 20.7691 81.5536 20.8058 81.6154 20.8116C82.2531 20.8851 82.8734 20.5237 83.1207 19.9305L83.6676 18.6242C83.9381 17.9807 84.6106 17.5865 85.3024 17.6677L90.3072 18.2455C90.6183 18.2822 90.914 18.4271 91.113 18.6686C91.1149 18.6706 91.1169 18.6725 91.1188 18.6744C91.1961 18.7691 91.3314 18.7884 91.4357 18.7266L95.8724 16.8541C95.8724 16.8503 95.8705 16.8483 95.8705 16.8445L98.5874 15.6909C96.7613 10.0194 91.4434 5.91309 85.1652 5.91309C77.3777 5.91309 71.0647 12.2261 71.0647 20.0136C71.0647 21.0667 71.1845 22.0928 71.4029 23.0802L74.2164 21.5421Z" fill="#FF813A"/>
<path d="M7.56516 8.59897V6.82119H6.97192V6.38062H8.63376V6.82119H8.04439V8.59897H7.56516Z" fill="#092E40"/>
<path d="M8.8501 8.59897V6.38062H9.46459L9.91097 7.8183L10.3593 6.38062H10.9699V8.59897H10.5081V7.10718L10.052 8.59897H9.73126L9.27329 7.10718V8.59897H8.8501Z" fill="#092E40"/>
</g>
<defs>
<clipPath id="clip0_2683_479">
<rect width="98.9372" height="40" fill="white"/>
</clipPath>
</defs>
</svg>
